<?xml version="1.0" encoding="utf-8"?>
<!-- Generator: Adobe Illustrator 16.0.0, SVG Export Plug-In . SVG Version: 6.00 Build 0)  -->
<!DOCTYPE svg PUBLIC "-//W3C//DTD SVG 1.1//EN" "http://www.w3.org/Graphics/SVG/1.1/DTD/svg11.dtd">
<svg version="1.1" id="Layer_1" xmlns="http://www.w3.org/2000/svg" xmlns:xlink="http://www.w3.org/1999/xlink" x="0px" y="0px"
	 width="50px" height="50px" viewBox="0 0 50 50" enable-background="new 0 0 50 50" xml:space="preserve">
<path d="M31.893,30.312c0,0.928-0.766,1.693-1.691,1.693H19.717c-0.932,0-1.693-0.762-1.693-1.693c0-0.926,0.766-1.691,1.693-1.691
	h10.484C31.133,28.621,31.893,29.383,31.893,30.312z M19.717,21.49h5.275c0.928,0,1.693-0.767,1.693-1.693
	c0-0.93-0.762-1.69-1.693-1.69h-5.275c-0.928,0-1.693,0.766-1.693,1.69C18.023,20.728,18.785,21.49,19.717,21.49z M50,6v38
	c0,3.314-2.688,6-6,6H6c-3.314,0-6-2.686-6-6V6c0-3.314,2.686-6,6-6h38C47.312,0,50,2.686,50,6z M39.518,23.663
	c0-1.298-0.377-2.173-1.953-2.173h-1.277c-1.25,0-1.988-0.783-1.988-1.696v-0.815c0-4.153-4.529-8.514-8.434-8.514h-6.148
	c-5.168,0-9.236,4.068-9.236,9.233v11.029c0,4.85,4.176,8.811,8.467,8.811h11.676c4.764,0,8.895-4.004,8.895-8.896V23.663z"/>
</svg>
