<?xml version="1.0" encoding="utf-8"?>
<!-- Generator: Adobe Illustrator 16.0.0, SVG Export Plug-In . SVG Version: 6.00 Build 0)  -->
<!DOCTYPE svg PUBLIC "-//W3C//DTD SVG 1.1//EN" "http://www.w3.org/Graphics/SVG/1.1/DTD/svg11.dtd">
<svg version="1.1" id="Layer_1" xmlns="http://www.w3.org/2000/svg" xmlns:xlink="http://www.w3.org/1999/xlink" x="0px" y="0px"
	 width="50px" height="50px" viewBox="0 0 50 50" enable-background="new 0 0 50 50" xml:space="preserve">
<circle fill="#2B3A4F" cx="25" cy="25" r="25"/>
<path fill="#FFFFFF" d="M34,17H16c-1.104,0-2,0.896-2,2v12c0,1.104,0.896,2,2,2h18c1.104,0,2-0.896,2-2V19
	C36,17.896,35.104,17,34,17 M16,18h18c0.117,0,0.229,0.024,0.334,0.062l-8.656,8.655c-0.182,0.182-0.422,0.281-0.678,0.281
	s-0.496-0.1-0.678-0.281l-8.655-8.655C15.771,18.024,15.883,18,16,18 M15,31V19c0-0.06,0.008-0.117,0.018-0.174L21.191,25
	l-6.174,6.174C15.008,31.117,15,31.06,15,31 M34,32H16c-0.117,0-0.229-0.023-0.333-0.061l6.231-6.232l1.717,1.717
	c0.383,0.383,0.884,0.574,1.385,0.574c0.502,0,1.002-0.191,1.385-0.574l1.717-1.717l6.232,6.232C34.229,31.977,34.117,32,34,32
	 M35,31c0,0.06-0.008,0.117-0.018,0.174L28.809,25l6.174-6.174C34.992,18.883,35,18.94,35,19V31z"/>
</svg>
