<?xml version="1.0" encoding="utf-8"?>
<!-- Generator: Adobe Illustrator 16.0.0, SVG Export Plug-In . SVG Version: 6.00 Build 0)  -->
<!DOCTYPE svg PUBLIC "-//W3C//DTD SVG 1.1//EN" "http://www.w3.org/Graphics/SVG/1.1/DTD/svg11.dtd">
<svg version="1.1" id="Layer_1" xmlns="http://www.w3.org/2000/svg" xmlns:xlink="http://www.w3.org/1999/xlink" x="0px" y="0px"
	 width="500px" height="134.5px" viewBox="0 0 500 134.5" enable-background="new 0 0 500 134.5" xml:space="preserve">
	 <a xlink:href="../index.html" target="_blank">
<g>
	<g>
		<path fill="#ffffff" d="M33.229,99.822C15.252,99.822,0,85.386,0,67.41s13.209-32.275,33.5-32.275h7.49v10.486h-7.218
			c-14.436,0-23.56,9.261-23.56,21.517c0,12.257,10.35,21.926,22.47,21.926h8.444v10.759H33.229z"/>
		<path fill="#ffffff" d="M51.881,99.822V0h10.759v99.822H51.881z"/>
		<path fill="#ffffff" d="M128.55,99.686v-8.579c-3.949,5.583-14.436,10.35-23.968,10.35c-18.521,0-33.909-14.98-33.909-33.91
			c0-18.793,15.524-33.909,33.909-33.909c19.065,0,33.909,15.252,33.909,33.909v32.139H128.55z M104.582,44.531
			c-12.665,0-23.015,10.35-23.015,23.015s10.35,22.879,23.015,22.879s22.878-10.214,22.878-22.879S117.247,44.531,104.582,44.531z"
			/>
		<path fill="#ffffff" d="M162.184,101.864c-6.265,0.273-14.708-3.132-15.661-3.541V87.021c0.817,0.681,7.899,3.813,15.388,3.95
			c7.762,0,13.21-4.086,12.665-10.214c-0.271-3.949-2.996-6.401-7.626-7.898l-9.26-2.86c-8.035-2.588-12.938-9.396-12.529-17.84
			c0.682-13.073,10.896-18.521,22.062-18.521c9.124,0.136,15.524,3.268,16.205,3.676v11.304c0-0.136-8.988-4.767-15.934-4.63
			c-6.672,0.136-11.984,2.587-11.848,8.171c0,4.63,3.813,7.218,8.171,8.58l8.443,2.451c7.898,2.315,13.346,9.941,13.074,17.023
			C185.198,91.106,179.206,101.32,162.184,101.864z"/>
		<path fill="#ffffff" d="M211.207,101.864c-6.265,0.273-14.708-3.132-15.661-3.541V87.021c0.817,0.681,7.899,3.813,15.388,3.95
			c7.762,0,13.21-4.086,12.665-10.214c-0.271-3.949-2.996-6.401-7.626-7.898l-9.26-2.86c-8.035-2.588-12.938-9.396-12.53-17.84
			c0.682-13.073,10.896-18.521,22.062-18.521c9.124,0.136,15.524,3.268,16.205,3.676v11.304c0-0.136-8.988-4.767-15.934-4.63
			c-6.672,0.136-11.984,2.587-11.848,8.171c0,4.63,3.813,7.218,8.171,8.58l8.443,2.451c7.898,2.315,13.346,9.941,13.074,17.023
			C234.221,91.106,228.229,101.32,211.207,101.864z"/>
		<path fill="#ffffff" d="M277.661,101.456c-9.67,0-17.977-4.222-23.969-9.533v42.489h-9.941V67.546c0-18.657,14.844-33.909,33.91-33.909
			c18.656,0,33.909,15.389,33.909,33.773C311.57,86.204,296.317,101.456,277.661,101.456z M277.661,44.531
			c-12.665,0-23.016,10.35-23.016,23.015s10.351,22.879,23.016,22.879s22.878-10.214,22.878-22.879S290.326,44.531,277.661,44.531z"
			/>
		<path fill="#ffffff" d="M340.981,45.349c-2.587,0-4.902,0.545-6.673,1.771c-2.314,1.634-2.996,3.949-2.996,6.809v45.894h-10.35V55.835
			c0-7.218,1.635-13.21,6.4-17.159c3.269-2.587,7.898-3.949,13.21-3.949h3.132v10.622H340.981z"/>
		<path fill="#ffffff" d="M413.02,70.406c-1.361,1.498-4.766,2.724-8.034,2.724h-45.621c2.179,9.941,11.712,17.568,22.198,17.295
			c8.988,0,17.021-5.311,20.836-13.074h11.711c-4.357,13.755-16.614,24.104-32.547,24.104c-18.93,0-34.046-15.797-34.046-33.91
			c0-18.657,15.797-33.909,34.046-33.909c16.887,0,30.776,11.848,33.501,29.143C415.472,65.503,414.791,68.091,413.02,70.406z
			 M381.562,44.531c-11.168,0-20.02,7.49-22.471,18.249h44.94C401.581,52.021,392.593,44.531,381.562,44.531z"/>
		<path fill="#ffffff" d="M456.051,101.456c-9.67,0-17.977-4.222-23.969-9.533v42.489h-9.941V67.546c0-18.657,14.844-33.909,33.91-33.909
			c18.656,0,33.909,15.389,33.909,33.773C489.96,86.204,474.707,101.456,456.051,101.456z M456.051,44.531
			c-12.665,0-23.016,10.35-23.016,23.015s10.351,22.879,23.016,22.879s22.878-10.214,22.878-22.879S468.716,44.531,456.051,44.531z"
			/>
	</g>
	<path fill="#ffffff" d="M500,94.818c0,3.62-2.935,6.555-6.554,6.555c-3.624,0-6.555-2.935-6.555-6.555c0-3.619,2.931-6.554,6.555-6.554
		C497.065,88.265,500,91.199,500,94.818z"/>
</g>
</a>
</svg>
