<?xml version="1.0" encoding="utf-8"?>
<!-- Generator: Adobe Illustrator 16.0.0, SVG Export Plug-In . SVG Version: 6.00 Build 0)  -->
<!DOCTYPE svg PUBLIC "-//W3C//DTD SVG 1.1//EN" "http://www.w3.org/Graphics/SVG/1.1/DTD/svg11.dtd">
<svg version="1.1" id="Layer_1" xmlns="http://www.w3.org/2000/svg" xmlns:xlink="http://www.w3.org/1999/xlink" x="0px" y="0px"
	 width="50px" height="50px" viewBox="0 0 50 50" enable-background="new 0 0 50 50" xml:space="preserve">
<circle fill="#2B3A4F" cx="25" cy="25" r="25"/>
<path fill="#FFFFFF" d="M36,31.492h-0.008c0-0.414-0.168-0.789-0.439-1.061c-0.08-0.08-0.17-0.147-0.267-0.207l-4.233-3.293
	c-0.271-0.271-0.646-0.439-1.061-0.439c-0.339,0-0.648,0.117-0.898,0.308l-1.182,1.19l-0.003-0.003
	c-0.183,0.205-0.446,0.336-0.742,0.336c-0.339,0-0.636-0.169-0.817-0.426c-0.006,0.01-0.015,0.019-0.021,0.029
	c-1.634-1.186-3.082-2.612-4.266-4.249c0.012-0.007,0.021-0.017,0.033-0.024c-0.26-0.183-0.432-0.483-0.432-0.826
	c0-0.306,0.14-0.577,0.355-0.762l-0.002-0.001l1.176-1.167C23.384,20.649,23.5,20.34,23.5,20c0-0.414-0.168-0.789-0.439-1.061
	l-3.292-4.233c-0.06-0.096-0.127-0.187-0.208-0.267C19.289,14.168,18.914,14,18.5,14c-2,0-4.5,2.351-4.5,5.25
	c0,0.803,0.186,1.562,0.508,2.242l-0.017,0.017c3.009,5.991,8.009,10.991,14,14l0.017-0.017C29.188,35.814,29.946,36,30.75,36
	c2.899,0,5.25-2.5,5.25-4.5C36,31.498,36,31.495,36,31.492 M30.75,35c-0.627,0-1.237-0.139-1.814-0.411
	c-0.054-0.025-0.109-0.046-0.166-0.061c-5.684-2.899-10.394-7.608-13.294-13.292c-0.016-0.058-0.037-0.116-0.063-0.171
	C15.139,20.487,15,19.877,15,19.25c0-2.425,2.124-4.25,3.5-4.25c0.18,0,0.299,0.092,0.354,0.147
	c0.013,0.013,0.035,0.039,0.068,0.092c0.018,0.028,0.037,0.055,0.057,0.082l3.293,4.233c0.025,0.033,0.053,0.063,0.082,0.093
	C22.408,19.701,22.5,19.82,22.5,20c0,0.089-0.024,0.172-0.072,0.249l-1.115,1.105c-0.004,0.006-0.01,0.01-0.015,0.016
	c-0.403,0.38-0.634,0.906-0.634,1.458c0,0.517,0.2,1.009,0.549,1.378c0.013,0.02,0.025,0.039,0.039,0.058
	c1.229,1.699,2.739,3.203,4.489,4.473c0.014,0.01,0.027,0.02,0.041,0.028c0.37,0.354,0.865,0.559,1.385,0.559
	c0.522,0,1.025-0.209,1.399-0.576c0.019-0.017,0.037-0.034,0.056-0.053l1.12-1.128c0.078-0.049,0.162-0.074,0.25-0.074
	c0.18,0,0.299,0.092,0.354,0.146c0.029,0.029,0.061,0.057,0.093,0.083l4.233,3.292c0.027,0.021,0.056,0.041,0.085,0.059
	c0.053,0.033,0.077,0.055,0.089,0.066c0.055,0.055,0.146,0.174,0.146,0.354c0,0.034,0.002,0.067,0.006,0.101
	C34.919,32.97,33.121,35,30.75,35"/>
</svg>
