<?xml version="1.0" encoding="utf-8"?>
<!-- Generator: Adobe Illustrator 16.0.0, SVG Export Plug-In . SVG Version: 6.00 Build 0)  -->
<!DOCTYPE svg PUBLIC "-//W3C//DTD SVG 1.1//EN" "http://www.w3.org/Graphics/SVG/1.1/DTD/svg11.dtd">
<svg version="1.1" id="Layer_1" xmlns="http://www.w3.org/2000/svg" xmlns:xlink="http://www.w3.org/1999/xlink" x="0px" y="0px"
	 width="100px" height="100px" viewBox="0 0 100 100" enable-background="new 0 0 100 100" xml:space="preserve">
<path fill="#7FAFF2" d="M80.617,78.341c-0.207,0-0.41-0.086-0.555-0.246l-8.994-9.915H42.02c-0.414,0-0.75-0.336-0.75-0.75v-6.591
	c0-0.414,0.336-0.75,0.75-0.75s0.75,0.336,0.75,0.75v5.841h28.632c0.212,0,0.413,0.09,0.556,0.246l7.91,8.722V67.43
	c0-0.414,0.336-0.75,0.75-0.75h6.801V33.227H60.857c-0.414,0-0.75-0.336-0.75-0.75s0.336-0.75,0.75-0.75h27.311
	c0.414,0,0.75,0.336,0.75,0.75V67.43c0,0.414-0.336,0.75-0.75,0.75h-6.801v9.411c0,0.31-0.19,0.588-0.479,0.699
	C80.8,78.324,80.709,78.341,80.617,78.341z"/>
<path fill="#0765E8" d="M19.182,68.735c-0.09,0-0.182-0.017-0.27-0.051c-0.289-0.111-0.48-0.39-0.48-0.699v-9.41h-6.803
	c-0.414,0-0.75-0.336-0.75-0.75V22.87c0-0.414,0.336-0.75,0.75-0.75h46.154c0.414,0,0.75,0.336,0.75,0.75v34.955
	c0,0.414-0.336,0.75-0.75,0.75H28.73l-8.992,9.914C19.593,68.649,19.39,68.735,19.182,68.735z"/>
<g>
	<path fill="#7FAFF2" d="M69.24,52.563v-0.09v-0.031c0-0.389,0.33-0.689,0.689-0.689c2.82,0,5.07-2.279,5.07-5.07
		c0-2.85-2.25-5.07-5.07-5.1c-1.89,0-3.51,0.99-4.38,2.551c-0.18,0.299-0.63,0.449-0.96,0.24c-0.359-0.211-0.449-0.631-0.239-0.961
		c1.109-1.949,3.18-3.24,5.579-3.24c3.57,0,6.48,2.91,6.48,6.51c0,3.301-2.521,6.061-5.76,6.42v3.211
		c0,0.389-0.33,0.689-0.721,0.689c-0.359,0-0.689-0.301-0.689-0.689V52.563z M69.24,59.823c0-0.391,0.33-0.721,0.689-0.721
		c0.391,0,0.721,0.33,0.721,0.721v0.658c0,0.391-0.33,0.691-0.721,0.691c-0.359,0-0.689-0.301-0.689-0.691V59.823z"/>
</g>
<g>
	<g>
		<polygon fill="#FFFFFF" points="24.693,36.684 25.787,38.902 28.234,39.257 26.463,40.983 26.881,43.422 24.693,42.271 
			22.504,43.422 22.922,40.983 21.15,39.257 23.598,38.902 		"/>
	</g>
	<g>
		<polygon fill="#FFFFFF" points="34.826,36.684 35.92,38.902 38.367,39.257 36.598,40.983 37.016,43.422 34.826,42.271 
			32.637,43.422 33.055,40.983 31.285,39.257 33.732,38.902 		"/>
	</g>
	<g>
		<polygon fill="#FFFFFF" points="44.721,36.684 45.814,38.902 48.262,39.257 46.492,40.983 46.91,43.422 44.721,42.271 
			42.529,43.422 42.947,40.983 41.178,39.257 43.625,38.902 		"/>
	</g>
</g>
</svg>
