<?xml version="1.0" encoding="utf-8"?>
<!-- Generator: Adobe Illustrator 16.0.0, SVG Export Plug-In . SVG Version: 6.00 Build 0)  -->
<!DOCTYPE svg PUBLIC "-//W3C//DTD SVG 1.1//EN" "http://www.w3.org/Graphics/SVG/1.1/DTD/svg11.dtd">
<svg version="1.1" id="Layer_1" xmlns="http://www.w3.org/2000/svg" xmlns:xlink="http://www.w3.org/1999/xlink" x="0px" y="0px"
	 width="36px" height="36px" viewBox="0 0 36 36" enable-background="new 0 0 36 36" xml:space="preserve">
<g>
	<g>
		<path fill="#231815" d="M32.5,36h-29C1.57,36,0,34.43,0,32.5v-29C0,1.57,1.57,0,3.5,0h29C34.43,0,36,1.57,36,3.5v29
			C36,34.43,34.43,36,32.5,36z M3.5,1C2.122,1,1,2.122,1,3.5v29C1,33.879,2.122,35,3.5,35h29c1.379,0,2.5-1.121,2.5-2.5v-29
			C35,2.122,33.879,1,32.5,1H3.5z"/>
	</g>
	<g>
		<path fill="#231815" d="M28,12c0,0.552-0.447,1-1,1H9c-0.552,0-1-0.448-1-1l0,0c0-0.552,0.448-1,1-1h18C27.553,11,28,11.448,28,12
			L28,12z"/>
	</g>
	<g>
		<path fill="#231815" d="M28,18c0,0.553-0.447,1-1,1H9c-0.552,0-1-0.447-1-1l0,0c0-0.552,0.448-1,1-1h18C27.553,17,28,17.448,28,18
			L28,18z"/>
	</g>
	<g>
		<path fill="#231815" d="M28,24c0,0.553-0.447,1-1,1H9c-0.552,0-1-0.447-1-1l0,0c0-0.553,0.448-1,1-1h18C27.553,23,28,23.447,28,24
			L28,24z"/>
	</g>
</g>
</svg>
