<?xml version="1.0" encoding="utf-8"?>
<!-- Generator: Adobe Illustrator 16.0.0, SVG Export Plug-In . SVG Version: 6.00 Build 0)  -->
<!DOCTYPE svg PUBLIC "-//W3C//DTD SVG 1.1//EN" "http://www.w3.org/Graphics/SVG/1.1/DTD/svg11.dtd">
<svg version="1.1" id="Layer_1" xmlns="http://www.w3.org/2000/svg" xmlns:xlink="http://www.w3.org/1999/xlink" x="0px" y="0px"
	 width="100px" height="100px" viewBox="0 0 100 100" enable-background="new 0 0 100 100" xml:space="preserve">
<path fill="#0765E8" d="M15.303,74.735c-0.068,0-0.139-0.013-0.206-0.039c-0.221-0.085-0.366-0.298-0.366-0.534v-7.189H9.532
	c-0.316,0-0.573-0.257-0.573-0.572V39.693c0-0.316,0.257-0.573,0.573-0.573h39.703c0.316,0,0.572,0.257,0.572,0.573V66.4
	c0,0.315-0.256,0.572-0.572,0.572H22.599l-6.87,7.574C15.617,74.67,15.462,74.735,15.303,74.735z"/>
<g>
	<g>
		<polygon fill="#FFFFFF" points="19.37,49.684 20.464,51.902 22.912,52.258 21.141,53.983 21.559,56.422 19.37,55.271 
			17.181,56.422 17.599,53.983 15.828,52.258 18.275,51.902 		"/>
	</g>
	<g>
		<polygon fill="#FFFFFF" points="29.504,49.684 30.598,51.902 33.045,52.258 31.275,53.983 31.693,56.422 29.504,55.271 
			27.313,56.422 27.732,53.983 25.962,52.258 28.409,51.902 		"/>
	</g>
	<g>
		<polygon fill="#FFFFFF" points="39.397,49.684 40.492,51.902 42.938,52.258 41.169,53.983 41.587,56.422 39.397,55.271 
			37.207,56.422 37.625,53.983 35.855,52.258 38.303,51.902 		"/>
	</g>
</g>
<g>
	<g>
		<path fill="#7FAFF2" d="M32.008,26.759H20.21c-0.273,0-0.524-0.148-0.656-0.388c-0.499-0.903-0.763-1.929-0.763-2.966
			c0-3.402,2.768-6.17,6.17-6.17h5.736c0.414,0,0.75,0.336,0.75,0.75s-0.336,0.75-0.75,0.75h-5.736c-2.575,0-4.67,2.095-4.67,4.67
			c0,0.639,0.132,1.271,0.385,1.854h11.332c0.414,0,0.75,0.336,0.75,0.75S32.422,26.759,32.008,26.759z"/>
	</g>
	<path fill="#7FAFF2" d="M38.138,83.811c-1.031,0-3.035-0.204-4.627-1.609c-1.466-1.294-2.209-3.259-2.209-5.84v-6.716
		c0-0.414,0.336-0.75,0.75-0.75s0.75,0.336,0.75,0.75v6.716c0,2.126,0.569,3.71,1.691,4.707c1.682,1.492,4.111,1.22,4.139,1.22
		c0.404-0.05,0.784,0.242,0.834,0.653c0.05,0.41-0.24,0.783-0.65,0.835C38.781,83.78,38.529,83.811,38.138,83.811z"/>
	<path fill="#7FAFF2" d="M78.753,74.934c-0.414,0-0.75-0.336-0.75-0.75V24.655c0-5.853-5.681-5.92-5.923-5.92H30.053
		c0.031,0.026,0.062,0.054,0.094,0.081c1.762,1.555,2.655,4.081,2.655,7.508v9.895c0,0.414-0.336,0.75-0.75,0.75
		s-0.75-0.336-0.75-0.75v-9.895c0-2.966-0.717-5.109-2.132-6.369c-1.014-0.903-2.195-1.157-2.945-1.22h-0.844
		c-0.396,0-0.724-0.308-0.749-0.703c-0.024-0.396,0.263-0.742,0.656-0.791c0.04-0.006,0.437-0.052,1.023-0.006H72.08
		c0.074,0,7.423,0.085,7.423,7.42v49.528C79.503,74.598,79.167,74.934,78.753,74.934z"/>
	<g>
		<path fill="#7FAFF2" d="M84.484,83.812H37.577c-0.414,0-0.75-0.336-0.75-0.75s0.336-0.75,0.75-0.75
			c2.574,0,4.669-2.095,4.669-4.67c0-0.798-0.192-1.554-0.573-2.247c-0.127-0.232-0.122-0.515,0.013-0.742
			c0.135-0.229,0.381-0.368,0.646-0.368h46.905c0.273,0,0.524,0.148,0.656,0.388c0.498,0.902,0.762,1.93,0.762,2.97
			C90.654,81.044,87.887,83.812,84.484,83.812z M41.604,82.312h42.88c2.575,0,4.67-2.095,4.67-4.67c0-0.651-0.129-1.274-0.384-1.857
			h-45.31c0.188,0.599,0.285,1.226,0.285,1.857C43.746,79.506,42.915,81.18,41.604,82.312z"/>
	</g>
</g>
<path fill="#7FAFF2" d="M61.852,35.217H48.286c-0.414,0-0.75-0.336-0.75-0.75s0.336-0.75,0.75-0.75h13.565
	c0.414,0,0.75,0.336,0.75,0.75S62.266,35.217,61.852,35.217z"/>
<path fill="#7FAFF2" d="M71.38,44.428H54.246c-0.414,0-0.75-0.336-0.75-0.75s0.336-0.75,0.75-0.75H71.38
	c0.414,0,0.75,0.336,0.75,0.75S71.794,44.428,71.38,44.428z"/>
<path fill="#7FAFF2" d="M71.38,52.791H54.246c-0.414,0-0.75-0.336-0.75-0.75s0.336-0.75,0.75-0.75H71.38
	c0.414,0,0.75,0.336,0.75,0.75S71.794,52.791,71.38,52.791z"/>
<path fill="#7FAFF2" d="M71.38,61.155H54.246c-0.414,0-0.75-0.336-0.75-0.75s0.336-0.75,0.75-0.75H71.38
	c0.414,0,0.75,0.336,0.75,0.75S71.794,61.155,71.38,61.155z"/>
<path fill="#7FAFF2" d="M71.38,69.519H54.246c-0.414,0-0.75-0.336-0.75-0.75s0.336-0.75,0.75-0.75H71.38
	c0.414,0,0.75,0.336,0.75,0.75S71.794,69.519,71.38,69.519z"/>
</svg>
