<?xml version="1.0" encoding="utf-8"?>
<!-- Generator: Adobe Illustrator 16.0.0, SVG Export Plug-In . SVG Version: 6.00 Build 0)  -->
<!DOCTYPE svg PUBLIC "-//W3C//DTD SVG 1.1//EN" "http://www.w3.org/Graphics/SVG/1.1/DTD/svg11.dtd">
<svg version="1.1" id="Layer_1" xmlns="http://www.w3.org/2000/svg" xmlns:xlink="http://www.w3.org/1999/xlink" x="0px" y="0px"
	 width="50px" height="50px" viewBox="0 0 50 50" enable-background="new 0 0 50 50" xml:space="preserve">
<path d="M44.001,0H5.999c-3.312,0-6,2.686-6,6v38c0,3.314,2.688,6,6,6h38.002c3.312,0,6-2.686,6-6V6C50.001,2.685,47.313,0,44.001,0
	z M32.157,25.938h-5.34v14.289h-5.439V25.938h-3.779v-5.145h3.779c0,0,0-2.109,0-4.395c0-3.453,2.232-6.625,7.373-6.625
	c2.084,0,3.623,0.199,3.623,0.199l-0.121,4.805c0,0-1.57-0.016-3.285-0.016c-1.854,0-2.15,0.855-2.15,2.273c0,0.209,0,0.258,0,0.236
	c0,0.389,0,1.342,0,3.521h5.582L32.157,25.938z"/>
</svg>
