<?xml version="1.0" encoding="utf-8"?>
<!-- Generator: Adobe Illustrator 16.0.0, SVG Export Plug-In . SVG Version: 6.00 Build 0)  -->
<!DOCTYPE svg PUBLIC "-//W3C//DTD SVG 1.1//EN" "http://www.w3.org/Graphics/SVG/1.1/DTD/svg11.dtd">
<svg version="1.1" id="Layer_1" xmlns="http://www.w3.org/2000/svg" xmlns:xlink="http://www.w3.org/1999/xlink" x="0px" y="0px"
	 width="50px" height="50px" viewBox="0 0 50 50" enable-background="new 0 0 50 50" xml:space="preserve">
<path d="M44,0H6C2.686,0,0,2.686,0,6v38c0,3.314,2.686,6,6,6h38c3.312,0,6-2.686,6-6V6C50,2.686,47.312,0,44,0z M16.898,39.633
	h-6.086V20.086h6.086V39.633z M13.857,17.412c-1.953,0-3.525-1.58-3.525-3.525c0-1.941,1.572-3.521,3.525-3.521
	c1.945,0,3.523,1.58,3.523,3.521C17.381,15.832,15.803,17.412,13.857,17.412z M39.668,39.633h-6.074v-9.504
	c0-2.268-0.045-5.184-3.16-5.184c-3.164,0-3.648,2.467-3.648,5.018v9.67h-6.072V20.086h5.828v2.67h0.084
	c0.811-1.537,2.795-3.158,5.754-3.158c6.15,0,7.289,4.049,7.289,9.314V39.633z"/>
</svg>
