<?xml version="1.0" encoding="utf-8"?>
<!-- Generator: Adobe Illustrator 16.0.0, SVG Export Plug-In . SVG Version: 6.00 Build 0)  -->
<!DOCTYPE svg PUBLIC "-//W3C//DTD SVG 1.1//EN" "http://www.w3.org/Graphics/SVG/1.1/DTD/svg11.dtd">
<svg version="1.1" id="Layer_1" xmlns="http://www.w3.org/2000/svg" xmlns:xlink="http://www.w3.org/1999/xlink" x="0px" y="0px"
	 width="100px" height="100px" viewBox="0 0 100 100" enable-background="new 0 0 100 100" xml:space="preserve">
<g>
	<circle fill="#0765E8" stroke="#0765E8" stroke-miterlimit="10" cx="48.275" cy="36.885" r="18"/>
	<path fill="#FFFFFF" d="M54.265,32.736c-0.364-0.367-0.961-0.367-1.327,0l-5.914,5.917l-3.412-3.411
		c-0.367-0.367-0.961-0.367-1.328-0.001c-0.367,0.367-0.367,0.962,0,1.329l3.412,3.412l1.328,1.328l0.704-0.704l0.624-0.624
		l5.914-5.917C54.632,33.7,54.632,33.103,54.265,32.736z"/>
</g>
<path fill="#7FAFF2" d="M17.852,46.094h9.134c0.414,0,0.75-0.336,0.75-0.75s-0.336-0.75-0.75-0.75h-9.134
	c-0.414,0-0.75,0.336-0.75,0.75S17.438,46.094,17.852,46.094z"/>
<path fill="#7FAFF2" d="M13.935,46.094h1.134c0.414,0,0.75-0.336,0.75-0.75s-0.336-0.75-0.75-0.75h-1.134
	c-0.414,0-0.75,0.336-0.75,0.75S13.521,46.094,13.935,46.094z"/>
<path fill="#7FAFF2" d="M13.935,53.457h1.134c0.414,0,0.75-0.336,0.75-0.75s-0.336-0.75-0.75-0.75h-1.134
	c-0.414,0-0.75,0.336-0.75,0.75S13.521,53.457,13.935,53.457z"/>
<path fill="#7FAFF2" d="M13.935,60.822h1.134c0.414,0,0.75-0.336,0.75-0.75s-0.336-0.75-0.75-0.75h-1.134
	c-0.414,0-0.75,0.336-0.75,0.75S13.521,60.822,13.935,60.822z"/>
<path fill="#7FAFF2" d="M17.852,53.457h13.694c0.414,0,0.75-0.336,0.75-0.75s-0.336-0.75-0.75-0.75H17.852
	c-0.414,0-0.75,0.336-0.75,0.75S17.438,53.457,17.852,53.457z"/>
<path fill="#7FAFF2" d="M17.852,60.822h21.694c0.414,0,0.75-0.336,0.75-0.75s-0.336-0.75-0.75-0.75H17.852
	c-0.414,0-0.75,0.336-0.75,0.75S17.438,60.822,17.852,60.822z"/>
<g>
	<path fill="#7FAFF2" d="M76.007,80.696c-0.087,0-0.175-0.015-0.26-0.046c-3.94-1.452-7.423-3.918-10.092-7.141
		c-9.039-0.996-16.707-5.997-20.061-13.104c-0.177-0.375-0.016-0.822,0.358-0.999c0.377-0.177,0.822-0.015,0.999,0.358
		c3.168,6.714,10.511,11.421,19.163,12.284c0.2,0.02,0.384,0.119,0.51,0.275c2.1,2.605,4.762,4.7,7.777,6.133
		c-0.823-1.8-1.411-3.69-1.753-5.641c-0.008-0.043-0.018-0.154-0.018-0.197c0-0.372,0.272-0.688,0.64-0.742
		c11.819-1.755,20.557-10.577,20.322-20.521C93.358,40.831,83.27,32.357,70.627,32.064c-0.414-0.01-0.742-0.354-0.732-0.768
		s0.369-0.758,0.768-0.732c13.446,0.312,24.178,9.43,24.432,20.758c0.246,10.48-8.66,19.787-20.837,21.916
		c0.472,2.243,1.275,4.359,2.401,6.337c0.156,0.273,0.124,0.615-0.079,0.856C76.434,80.603,76.223,80.696,76.007,80.696z"/>
	<path fill="#7FAFF2" d="M22.765,80.794c-0.216,0-0.427-0.094-0.572-0.265c-0.204-0.24-0.235-0.583-0.079-0.857
		c1.139-1.992,1.952-4.123,2.423-6.344C12.367,71.24,3.491,61.966,3.772,51.483c0.263-10.21,9.114-18.854,21.047-20.551
		c0.401-0.069,0.79,0.227,0.848,0.637c0.059,0.41-0.227,0.79-0.637,0.848C13.825,34.011,5.516,42.046,5.272,51.523
		c-0.268,9.942,8.438,18.73,20.249,20.442c0.369,0.054,0.643,0.369,0.643,0.742c0,0.062-0.014,0.189-0.028,0.249
		c-0.341,1.912-0.932,3.791-1.758,5.589c3.018-1.444,5.685-3.548,7.792-6.159c0.126-0.156,0.308-0.255,0.507-0.275
		c6.344-0.656,12.196-3.461,16.056-7.695c0.28-0.309,0.755-0.327,1.06-0.05c0.307,0.279,0.328,0.754,0.05,1.06
		c-4.042,4.435-10.115,7.393-16.701,8.144c-2.68,3.232-6.17,5.711-10.114,7.178C22.94,80.778,22.853,80.794,22.765,80.794z"/>
</g>
<path fill="#0765E8" d="M52.507,47.911h-13.02c-1.234,0-2.238-1.004-2.238-2.238V30.84c0-0.414,0.336-0.75,0.75-0.75
	s0.75,0.336,0.75,0.75v14.833c0,0.407,0.331,0.738,0.738,0.738h13.02c0.414,0,0.75,0.336,0.75,0.75S52.921,47.911,52.507,47.911z"/>
<path fill="#0765E8" d="M58.552,43.075c-0.414,0-0.75-0.336-0.75-0.75V28.097c0-0.407-0.331-0.739-0.738-0.739h-13.02
	c-0.414,0-0.75-0.336-0.75-0.75s0.336-0.75,0.75-0.75h13.02c1.234,0,2.238,1.005,2.238,2.239v14.229
	C59.302,42.739,58.966,43.075,58.552,43.075z"/>
<path fill="#0765E8" d="M40.418,33.944c-0.241,0-0.478-0.116-0.623-0.331l-1.796-2.664l-1.796,2.664
	c-0.232,0.342-0.698,0.437-1.041,0.203c-0.344-0.231-0.435-0.698-0.203-1.041l2.418-3.587c0.279-0.414,0.965-0.414,1.244,0
	l2.418,3.587c0.231,0.343,0.141,0.81-0.203,1.041C40.708,33.903,40.562,33.944,40.418,33.944z"/>
<g>
	<path fill="#7FAFF2" d="M83.338,46.843H70.204c-0.414,0-0.75-0.336-0.75-0.75s0.336-1.75,0.75-1.75h13.134
		c0.414,0,0.75,1.336,0.75,1.75S83.752,46.843,83.338,46.843z"/>
	<path fill="#7FAFF2" d="M83.338,54.206H65.644c-0.414,0-0.75-1.336-0.75-1.75s0.336-0.75,0.75-0.75h17.694
		c0.414,0,0.75,0.336,0.75,0.75S83.752,54.206,83.338,54.206z"/>
	<path fill="#7FAFF2" d="M83.338,61.57H57.644c-0.414,0-0.75-0.336-0.75-0.75s0.336-1.75,0.75-1.75h25.694
		c0.414,0,0.75,1.336,0.75,1.75S83.752,61.57,83.338,61.57z"/>
	<path fill="#7FAFF2" d="M84.125,60.999c0,0.552-0.447,1-1,1h-25.5c-0.553,0-1-0.448-1-1v-2.25c0-0.552,0.447-1,1-1h25.5
		c0.553,0,1,0.448,1,1V60.999z"/>
	<path fill="#7FAFF2" d="M84.125,53.999c0,0.552-0.447,1-1,1h-18.5c-0.553,0-1-0.448-1-1v-2.25c0-0.552,0.447-1,1-1h18.5
		c0.553,0,1,0.448,1,1V53.999z"/>
	<path fill="#7FAFF2" d="M84.125,46.666c0,0.552-0.447,1-1,1h-13.5c-0.553,0-1-0.448-1-1v-2.25c0-0.552,0.447-1,1-1h13.5
		c0.553,0,1,0.448,1,1V46.666z"/>
</g>
</svg>
