<?xml version="1.0" encoding="utf-8"?>
<!-- Generator: Adobe Illustrator 16.0.0, SVG Export Plug-In . SVG Version: 6.00 Build 0)  -->
<!DOCTYPE svg PUBLIC "-//W3C//DTD SVG 1.1//EN" "http://www.w3.org/Graphics/SVG/1.1/DTD/svg11.dtd">
<svg version="1.1" id="Layer_1" xmlns="http://www.w3.org/2000/svg" xmlns:xlink="http://www.w3.org/1999/xlink" x="0px" y="0px"
	 width="50px" height="50px" viewBox="0 0 50 50" enable-background="new 0 0 50 50" xml:space="preserve">
<g>
	<g>
		<path d="M30.111,29.558c-0.781,0-1.52,0.434-2.214,1.302v-5.241h-2.181v16.049h2.181v-1.173c0.716,0.891,1.453,1.335,2.214,1.335
			c0.89,0,1.464-0.455,1.725-1.367c0.151-0.456,0.228-1.247,0.228-2.377v-4.752c0-1.15-0.076-1.953-0.228-2.409
			C31.575,30.013,31.001,29.558,30.111,29.558z M29.916,38.248c0,1.064-0.315,1.595-0.944,1.595c-0.369,0-0.728-0.173-1.074-0.52
			V32.03c0.347-0.346,0.705-0.52,1.074-0.52c0.629,0,0.944,0.543,0.944,1.628V38.248z"/>
		<path d="M37.012,29.558c-1.106,0-1.976,0.413-2.604,1.237c-0.435,0.585-0.651,1.52-0.651,2.799v4.2
			c0,1.28,0.229,2.212,0.685,2.799c0.629,0.825,1.508,1.237,2.637,1.237c1.15,0,2.018-0.434,2.604-1.303
			c0.261-0.391,0.424-0.823,0.489-1.302c0.043-0.303,0.064-0.771,0.064-1.4v-0.293h-2.214c0,0.239,0,0.472,0,0.699
			s-0.005,0.406-0.016,0.538c-0.012,0.129-0.017,0.206-0.017,0.228c-0.13,0.564-0.456,0.845-0.977,0.845
			c-0.738,0-1.106-0.553-1.106-1.659v-2.116h4.329v-2.473c0-1.258-0.228-2.191-0.683-2.8C38.965,29.971,38.118,29.558,37.012,29.558
			z M38.054,34.277h-2.148V33.17c0-1.106,0.357-1.659,1.073-1.659c0.717,0,1.075,0.553,1.075,1.659V34.277z"/>
		<path d="M21.679,38.835c-0.477,0.672-0.933,1.008-1.367,1.008c-0.305,0-0.467-0.162-0.488-0.488
			c-0.022-0.042-0.032-0.325-0.032-0.846V29.72h-2.148v9.44c0,0.825,0.065,1.41,0.195,1.757c0.195,0.609,0.651,0.912,1.367,0.912
			c0.803,0,1.627-0.488,2.474-1.465v1.303h2.181V29.721H21.68L21.679,38.835L21.679,38.835L21.679,38.835z"/>
		<path d="M24.512,17.448c0.694,0,1.042-0.554,1.042-1.661v-5.079c0-1.128-0.348-1.692-1.042-1.692
			c-0.695,0-1.042,0.564-1.042,1.692v5.079C23.47,16.894,23.817,17.448,24.512,17.448z"/>
		<polygon points="9.766,27.896 12.305,27.896 12.305,41.667 14.714,41.667 14.714,27.896 17.317,27.896 17.317,25.618 
			9.766,25.618 		"/>
		<path d="M40.625,0H9.375C6.793,0,4.585,0.918,2.751,2.75C0.917,4.585,0,6.793,0,9.375v31.25c0,2.582,0.917,4.791,2.751,6.623
			C4.584,49.082,6.792,50,9.375,50h31.25c2.582,0,4.79-0.918,6.624-2.752C49.083,45.416,50,43.207,50,40.625V9.375
			c0-2.582-0.917-4.79-2.751-6.625C45.415,0.918,43.207,0,40.625,0z M29.525,7.227h2.181v8.854c0,0.521,0.011,0.804,0.032,0.847
			c0.021,0.348,0.195,0.521,0.521,0.521c0.434,0,0.89-0.336,1.367-1.01V7.227h2.181v12.044h-2.181v-1.302
			c-0.89,0.977-1.726,1.465-2.507,1.465c-0.694,0-1.161-0.292-1.399-0.878c-0.13-0.391-0.195-0.987-0.195-1.79L29.525,7.227
			L29.525,7.227z M21.289,11.132c0-1.257,0.228-2.202,0.684-2.832c0.586-0.824,1.433-1.237,2.539-1.237
			c1.062,0,1.909,0.413,2.538,1.237c0.456,0.63,0.684,1.574,0.684,2.832v4.232c0,1.302-0.228,2.247-0.684,2.832
			c-0.629,0.825-1.476,1.237-2.538,1.237c-1.106,0-1.953-0.412-2.539-1.237c-0.456-0.628-0.684-1.572-0.684-2.832V11.132
			L21.289,11.132z M15.43,3.093l1.726,6.347l1.66-6.347h2.441l-2.93,9.636v6.542h-2.409v-6.542
			c-0.239-1.194-0.738-2.908-1.498-5.144c-0.152-0.499-0.402-1.248-0.749-2.247c-0.348-0.997-0.608-1.746-0.781-2.246H15.43
			L15.43,3.093z M42.253,42.382c-0.218,0.935-0.679,1.727-1.384,2.377c-0.705,0.651-1.524,1.031-2.457,1.14
			c-2.974,0.325-7.444,0.488-13.411,0.488c-5.969,0-10.439-0.163-13.412-0.488c-0.934-0.108-1.753-0.488-2.458-1.14
			c-0.706-0.65-1.167-1.441-1.383-2.377c-0.434-1.822-0.651-4.644-0.651-8.463c0-3.754,0.217-6.575,0.651-8.464
			c0.217-0.954,0.678-1.75,1.383-2.392c0.705-0.641,1.535-1.015,2.49-1.124c2.951-0.325,7.411-0.489,13.379-0.489
			c5.989,0,10.46,0.163,13.411,0.489c0.934,0.109,1.759,0.483,2.475,1.124c0.716,0.641,1.183,1.438,1.399,2.392
			c0.412,1.802,0.618,4.623,0.618,8.464C42.903,37.738,42.687,40.56,42.253,42.382z"/>
	</g>
</g>
</svg>
