<?xml version="1.0" encoding="utf-8"?>
<!-- Generator: Adobe Illustrator 16.0.0, SVG Export Plug-In . SVG Version: 6.00 Build 0)  -->
<!DOCTYPE svg PUBLIC "-//W3C//DTD SVG 1.1//EN" "http://www.w3.org/Graphics/SVG/1.1/DTD/svg11.dtd">
<svg version="1.1" id="Layer_1" xmlns="http://www.w3.org/2000/svg" xmlns:xlink="http://www.w3.org/1999/xlink" x="0px" y="0px"
	 width="50px" height="50px" viewBox="0 0 50 50" enable-background="new 0 0 50 50" xml:space="preserve">
<circle fill="#2B3A4F" cx="25" cy="25" r="25"/>
<path fill="#FFFFFF" d="M25,14c-4.418,0-8,3.582-8,8c0,6.5,8,14,8,14s8-7.5,8-14C33,17.582,29.418,14,25,14 M25,34.5
	c0,0-7-6.5-7-12.5c0-3.866,3.134-7,7-7s7,3.134,7,7C32,28,25,34.5,25,34.5 M25,18c-2.209,0-4,1.791-4,4s1.791,4,4,4
	c2.209,0,4-1.791,4-4S27.209,18,25,18 M25,25c-1.657,0-3-1.343-3-3c0-1.656,1.343-3,3-3s3,1.344,3,3C28,23.657,26.657,25,25,25"/>
</svg>
